<?xml version="1.0" encoding="UTF-8"?>
<svg id="Capa_1" xmlns="http://www.w3.org/2000/svg" version="1.1" viewBox="0 0 154 155.6">
  <!-- Generator: Adobe Illustrator 29.5.0, SVG Export Plug-In . SVG Version: 2.1.0 Build 137)  -->
  <defs>
    <style>
      .st0 {
        fill: #015275;
      }
    </style>
  </defs>
  <g>
    <path class="st0" d="M151.2,146.5c-2.8,0-5.1-.3-7-.9-1.9-.7-3.5-1.9-4.8-3.5-1.3-1.7-2.6-4.1-3.7-7.2l-9.8-26.7-7.6-20.9L86.3,0h-17.1l-28,74.6c4.2.5,8.5,1.2,12.9,2.1l9-24.2c1.3-3.3,2.4-6.4,3.3-9.2,1-2.9,1.9-5.6,2.6-8.1.9-2.6,1.6-5.2,2.2-7.6.7-2.5,1.4-5,2-7.6.9,3.5,1.8,7,2.8,10.7,1.2,3.6,2.4,7.4,3.7,11.3,1.5,3.9,2.9,8.1,4.4,12.4l11.2,31.4,2.4,6.7,3.9,10.9,1.5,4.2,7.2,20.2c.4,1,.7,2,.9,3,.3.9.5,1.7.7,2.6.1.7.2,1.5.2,2.4,0,3.6-1.1,6.3-3.3,8.1-2.2,1.6-5.5,2.4-9.8,2.4h-5v9.2h60v-9.2h-2.8v.2h0Z"/>
    <path class="st0" d="M37.3,143.9c-2.3-1.7-3.5-4.4-3.5-8.1,0-.9.1-1.7.2-2.6.1-1,.4-2.1.7-3.3.3-1.2.7-2.3,1.1-3.5l10.7-29.1,1.8-4.7,1-2.6c-4.1-1.3-8.3-2.4-12.5-3.3l-16,42.7c-1.7,4.6-3.4,8.2-4.8,10.7-1.5,2.5-3.1,4.1-4.8,5-1.7.9-4.1,1.3-7,1.3H0v9.2h53.3v-9.2h-5c-4.9.1-8.6-.8-11-2.5h0Z"/>
  </g>
  <path class="st0" d="M49.3,90l4.8-13.3-4.8,13.3Z"/>
  <path class="st0" d="M41.2,74.6l-4.4,12.1,4.4-12.1Z"/>
  <path class="st0" d="M54.1,76.7l-4.4,12.1,4.4-12.1Z"/>
  <path class="st0" d="M41.2,74.6l-4.4,12.1,4.4-12.1Z"/>
  <path class="st0" d="M49.3,90l4.8-13.3-4.8,13.3Z"/>
  <path class="st0" d="M36.8,86.7l4.4-12.1,13.05,1.7-4.95,13.7"/>
</svg>