<?xml version="1.0" encoding="UTF-8"?>
<svg id="Capa_1" xmlns="http://www.w3.org/2000/svg" version="1.1" viewBox="0 0 195.87 49.05">
  <!-- Generator: Adobe Illustrator 29.5.0, SVG Export Plug-In . SVG Version: 2.1.0 Build 137)  -->
  <defs>
    <style>
      .st0 {
        fill: #5fd0e0;
      }
    </style>
  </defs>
  <path class="st0" d="M195.38.31c-.4-.4-1.1-.4-1.5-.1-13.8,10.2-28.9,19.2-45.7,20.4-3,.2-5.9.3-8.9.3l7.6,20.9c21.1-3.5,40.2-17.7,48.9-39.9.2-.6.1-1.3-.4-1.6h0Z"/>
  <path class="st0" d="M118.58,26.21l-2.4-6.7c-6.3-.9-12.6-2.1-18.8-3.6-7.5-2.1-15-4-22.3-5.5-4.4-.9-8.7-1.6-12.9-2.1C35.68,5.21,12.98,11.81.08,47.51c-.2.5,0,1.2.5,1.4.5.3,1.1.1,1.3-.5,8.4-15.8,22.2-30.1,40-29.9,5.3.1,10.6.8,15.8,1.9,4.2.9,8.4,2,12.5,3.3,16.9,5.2,33.5,13.1,50.6,17,1.1.3,2.2.5,3.3.7l-1.5-4.2-4-11h0Z"/>
</svg>